<svg width="137" height="32" fill="none"><path d="m26.229 6.53163 4.353 12.50847-14.582 2.9599-14.58203-2.9599 4.35297-12.50847c.73586-2.11453 2.72947-3.53163 4.96836-3.53163 2.9054 0 5.2607 2.35526 5.2607 5.26063 0-2.90537 2.3553-5.26063 5.2606-5.26063 2.2389 0 4.2325 1.4171 4.9684 3.53163z" fill="#f5a250" fill-opacity=".36"></path><g stroke="#f5a250" stroke-width="2"><path d="m16 22v-13.73937m0 13.73937-14.58203-2.9599 4.35297-12.50847c.73586-2.11453 2.72947-3.53163 4.96836-3.53163 2.9054 0 5.2607 2.35526 5.2607 5.26063m0 13.73937 14.582-2.9599-4.353-12.50847c-.7359-2.11453-2.7295-3.53163-4.9684-3.53163-2.9053 0-5.2606 2.35526-5.2606 5.26063" stroke-linecap="round" stroke-linejoin="round"></path><circle cx="8.5" cy="21.5" fill="#fff" r="7.5"></circle><circle cx="23.5" cy="21.5" fill="#fff" r="7.5"></circle></g><path d="m11 21.5c0 .5523.4477 1 1 1s1-.4477 1-1zm-2.5-4.5c-.55228 0-1 .4477-1 1s.44772 1 1 1zm0 2c1.38071 0 2.5 1.1193 2.5 2.5h2c0-2.4853-2.0147-4.5-4.5-4.5z" fill="#f5a250"></path><path d="m26 21.5c0 .5523.4477 1 1 1s1-.4477 1-1zm-2.5-4.5c-.5523 0-1 .4477-1 1s.4477 1 1 1zm0 2c1.3807 0 2.5 1.1193 2.5 2.5h2c0-2.4853-2.0147-4.5-4.5-4.5z" fill="#f5a250"></path></svg>