<svg fill="none" height="32" viewBox="0 0 32 32" width="32" xmlns="http://www.w3.org/2000/svg"><g stroke="#677185" stroke-linecap="round" stroke-linejoin="round" stroke-width="2"><path d="m2.66666 13c-.36818 0-.66666-.2985-.66666-.6667v-2.66663c0-.36819.29848-.66667.66666-.66667h26.66664c.3681 0 .6666.29848.6666.66667v2.66663c0 .3682-.2985.6667-.6666.6667z" fill="#b1b8c7"></path><path d="m27.9999 8.99998c0-3.99999-5.9999-7.99998-11.9999-7.99998-6.00001 0-12 3.99999-12 7.99998"></path><path d="m3 27c-.55228 0-1-.4477-1-1v-2c0-.5523.44772-1 1-1h25.9999c.5523 0 1 .4477 1 1v2c0 .5523-.4477 1-1 1z" fill="#b1b8c7"></path><path d="m2 31h27.9999"></path><path d="m4 13v10"></path><path d="m8 13v10"></path><path d="m12 13v10"></path><path d="m20 13v10"></path><path d="m28 13v10"></path><path d="m24 13v10"></path></g></svg>