<?xml version="1.0" encoding="UTF-8"?>
<svg xmlns:xodm="http://www.corel.com/coreldraw/odm/2003" xmlns="http://www.w3.org/2000/svg" xmlns:xlink="http://www.w3.org/1999/xlink" version="1.1" id="Layer_1" x="0px" y="0px" viewBox="0 0 2500 475" style="enable-background:new 0 0 2500 475;" xml:space="preserve">
<style type="text/css">
	.st0{fill:#B2B9C7;fill-opacity:0.6;}
	.st1{fill:#3D89F5;}
	.st2{fill:#1656B9;}
	.st3{fill:#85B5F8;}
	.st4{fill:none;}
</style>
<g id="Layer_x0020_1">
	<g id="_1941223853536">
		<path fill="#fff" d="M1604.7,148.6c-0.7-12.6,8.7-23.4,21.3-24.1c12.6-0.7,23.4,8.7,24.1,21.3c0.7,12.6-8.7,23.4-21.3,24.1c-0.3,0-1,0-1.4,0    C1615.2,170.2,1605.1,160.8,1604.7,148.6L1604.7,148.6z M1606.5,189h41.5v149.9h-41.5V189z M496.4,139.2h-80.2v200.1H502    c45,0,69-23.4,69-55.4c1-25.5-18.5-47.4-43.9-48.5v-2.1c21.3-3.1,37-21.6,36.3-42.9C563,160.5,540.7,139.2,496.4,139.2    L496.4,139.2L496.4,139.2z M520.2,197.1c0,15.7-13.6,25.5-30,25.5l-32.1,0.3V173h32.8C509.7,173,520.2,181.4,520.2,197.1    L520.2,197.1z M526.4,279.3c0,15-9.8,24.8-33.5,24.8h-34.9v-53H493c16-2.4,30.7,8.7,33.1,24.8l0,0    C526.4,276.9,526.4,278.3,526.4,279.3L526.4,279.3z M591.3,339.3h42.2l-0.7-200.1h-41.5L591.3,339.3L591.3,339.3z M655.4,264.7    c0-46.4,28.2-77.4,73.9-77.4c45.3,0,73.9,31,73.9,77.4c0,46.4-28.2,77.4-73.9,77.4C683.7,342.1,655.4,311.1,655.4,264.7z     M760.7,264.7c0-26.1-10.8-45.3-31.4-45.3c-20.6,0-31.7,19.2-31.7,45.3c0,26.1,10.8,45.3,31.7,45.3    C750.2,310,760.7,290.8,760.7,264.7L760.7,264.7z M892.5,187.3c-45.7,0-73.6,31.4-73.6,77.4c0,46,27.5,77.4,73.6,77.4    c39.4,0,64.5-23.4,66.6-57.9h-39.4c-1,14.3-12.9,25.5-27.2,25.1c-19.5,0-32.1-17.1-32.1-45s12.6-44.6,32.1-44.6    c14.3-0.3,26.1,10.8,27.2,25.1l39.4,0C957.7,210,931.5,187.3,892.5,187.3L892.5,187.3L892.5,187.3z M981,139.2h41.8v106.7h2.1    l48.1-56.8h47.8l-55.8,64.8l58.6,85.1h-48.8l-40.8-60.7l-11.2,12.9v48.1h-41.5V139.2H981z M1197.2,187.3    c-45.7,0-73.6,31.4-73.6,77.4c0,46,27.5,77.4,73.9,77.4c39.7,0,64.8-23.4,66.6-57.9h-39c-1,14.3-12.9,25.5-27.2,25.1    c-19.5,0-32.1-17.1-32.1-45s12.6-44.6,32.1-44.6c14.3-0.3,26.5,10.8,27.2,25.1l39,0C1262.7,210,1236.2,187.3,1197.2,187.3    L1197.2,187.3L1197.2,187.3z M1327.2,339.3h-41.5V139.2h40.4v76.7h1.7c7-18.5,25.1-30,45-28.6c31,0,51.9,21.3,51.9,56.5v95.5H1383    v-88.2c2.1-13.9-7.7-26.8-21.6-28.9c-1.7-0.3-3.5-0.3-5.2-0.3c-15.3-0.7-28.6,11.2-29.3,26.5c0,1.4,0,2.8,0,4.2L1327.2,339.3    L1327.2,339.3z M1501.5,251.1c-29.6,2.8-56.5,12.9-56.5,46.4c0,29.6,21.3,44.6,49.9,44.6c18.1,1.4,35.2-8,43.9-23.7h1v20.9l39.4,0    V237.8c0-35.9-30.3-50.9-63.8-50.9c-35.9,0-59.6,17.1-65.5,44.6l38.4,3.1c3.8-11.2,15-18.1,26.5-16.7c14.3,0,22.3,7.3,22.3,19.5    C1537.4,247.3,1527.3,248.3,1501.5,251.1L1501.5,251.1L1501.5,251.1z M1537.8,268.9v16.7c-1,16-14.6,27.9-30.7,27.2    c-0.3,0-0.3,0-0.7,0c-12.9,0-22-5.9-22-17.4c0-11.5,9.8-17.4,24.4-19.5C1519,274.8,1528.7,272.4,1537.8,268.9L1537.8,268.9z     M1675.2,339.3h42.2l-0.7-86.8c-1.7-15,9.1-28.6,24.1-30.7c1.4,0,2.8-0.3,4.2,0c14.3-0.7,26.1,10.1,26.8,24.4c0,1.7,0,3.1-0.3,4.9    v88.2h41.8v-95.5c0-34.9-20.6-56.5-51.9-56.5c-19.5-1.4-38,10.1-45.3,28.6h-1.7v-26.5h-39.7v149.9H1675.2z"></path>
		<path class="st0" d="M2271.6,189h-39.7v149.9h41.8V249c-1-10.5,4.9-20.6,14.3-25.1c3.1-1.4,6.6-2.4,10.1-2.4    c9.8-0.3,18.5,5.6,21.6,15c1,3.1,1.4,6.3,1,9.4v93.4h40.4v-91.7c-1.4-12.9,8-24.4,20.9-25.8l0,0c1,0,2.4,0,3.5,0    c12.2-0.7,22.7,9.1,23.4,21.3c0,1.4,0,2.4,0,3.8v92.4h41.8V239.2c0.7-26.8-20.2-49.2-47.1-49.9c-18.8-0.3-35.9,9.8-44.6,26.5h-2.4    c-5.2-17.8-22.3-29.6-40.8-28.6c-18.8-1-35.9,10.8-41.8,28.6h-1.7L2271.6,189L2271.6,189z M1980.2,187.3    c-45.7,0-73.6,31.4-73.6,77.4c0,46,27.5,77.4,74.3,77.4c39.7,0,64.8-23.4,66.6-57.9h-39c-1,14.3-12.9,25.5-27.2,25.1    c-19.2,0-32.1-17.1-32.1-45c0-27.9,12.6-44.6,32.1-44.6c14.3-0.3,26.5,10.8,27.2,25.1l38.4,0    C2045.7,210,2019.2,187.3,1980.2,187.3z M1848.4,301.7c-9.1,9.1-9.1,24.1,0,33.1c9.1,9.1,24.1,9.1,33.1,0c9.1-9.1,9.1-24.1,0-33.1    c-4.5-4.5-10.5-7-16.7-7C1858.9,295,1852.9,297.5,1848.4,301.7L1848.4,301.7z M2062.8,264.7c0-46.4,28.2-77.4,73.9-77.4    c45.7,0,73.6,31,73.6,77.4c0,46.4-28.2,77.4-73.6,77.4S2062.8,311.1,2062.8,264.7L2062.8,264.7z M2168.1,264.7    c0-26.1-10.8-45.3-31.4-45.3c-20.6,0-31.7,19.2-31.7,45.3c0,26.1,10.8,45.3,31.7,45.3S2168.1,290.8,2168.1,264.7L2168.1,264.7z"></path>
		<g>
			<path class="st1" d="M72.5,202.6l-12.2,12.2c-13.9,13.2-14.3,35.2-1,49.2l0,0c0.3,0.3,0.7,0.7,1,1l98,99c2.4,2.4,4.9,4.5,8,5.9     V249.7C166.3,249.7,72.5,202.6,72.5,202.6z"></path>
			<path class="st2" d="M293.5,202.6l12.2,12.2c13.6,13.2,14.3,35.2,1,49.2c-0.3,0.3-0.7,0.7-1,1l-98.3,98.7c-2.4,2.4-4.9,4.5-8,5.9     V249.7L293.5,202.6L293.5,202.6z"></path>
			<path class="st3" d="M269.8,177.5l-61.4-61.4c-13.6-13.6-35.6-13.9-49.2-0.7c-0.3,0.3-0.7,0.3-0.7,0.7l-61.7,61.4l86.1,42.9     L269.8,177.5z"></path>
		</g>
		<rect y="0.1" class="st4" width="2500" height="474.8"></rect>
	</g>
</g>
</svg>
