<svg width="20" height="36" viewBox="0 0 20 36" fill="none" xmlns="http://www.w3.org/2000/svg"><path opacity="0.36" d="M5 1.25C2.92893 1.25 1.25 2.92893 1.25 5V31C1.25 33.0711 2.92893 34.75 5 34.75H15C17.0711 34.75 18.75 33.0711 18.75 31V5C18.75 2.92893 17.0711 1.25 15 1.25H5Z" fill="#5322E5" stroke="#5322E5" stroke-width="1.5" stroke-linecap="round" stroke-linejoin="round"></path><path opacity="0.9" d="M5 1.25C2.92893 1.25 1.25 2.92893 1.25 5V28C1.25 30.0711 2.92893 31.75 5 31.75H15C17.0711 31.75 18.75 30.0711 18.75 28V5C18.75 2.92893 17.0711 1.25 15 1.25H5Z" fill="white" stroke="rgb(115, 73, 242)" stroke-width="1.5" stroke-linecap="round" stroke-linejoin="round"></path><rect x="8" y="4" width="4" height="1" rx="0.5" fill="currentColor"></rect></svg>