<svg width="24" height="24" viewBox="0 0 24 24" fill="none" class="Footer__TwitterIcon-sc-13334au-18 kHpuNk"><path fill-rule="evenodd" clip-rule="evenodd" d="M24 4.31776C23.1028 4.69159 22.2056 4.99065 21.1589 5.06542C22.2056 4.46729 22.9533 3.49533 23.3271 2.37383C22.3551 2.97196 21.3084 3.34579 20.1869 3.57009C19.2897 2.59813 18.0187 2 16.6729 2C13.9813 2 11.7383 4.16822 11.7383 6.93458C11.7383 7.30841 11.8131 7.68224 11.8878 8.05608C7.7757 7.83178 4.18692 5.88785 1.71963 2.8972C1.27103 3.64486 1.04673 4.46729 1.04673 5.36449C1.04673 7.08411 1.94393 8.57944 3.21495 9.47664C2.39252 9.47664 1.64486 9.25234 0.971963 8.8785V8.95327C0.971963 11.3458 2.69159 13.2897 4.93458 13.7383C4.48598 13.8131 4.11215 13.8878 3.66355 13.8878C3.36449 13.8878 3.06542 13.8879 2.76636 13.8131C3.36449 15.757 5.23364 17.1776 7.3271 17.2523C5.68224 18.5981 3.51402 19.3458 1.19626 19.3458C0.82243 19.3458 0.373832 19.3458 0 19.271C2.24299 20.6168 4.85981 21.4393 7.62617 21.4393C16.6729 21.4393 21.6075 13.9626 21.6075 7.45794C21.6075 7.23364 21.6075 7.00935 21.6075 6.85981C22.5047 6.11215 23.3271 5.28972 24 4.31776Z" fill="currentColor"></path></svg>
